# xmcd
#
# Track frame offsets:
#	150
#	14505
#	30255
#	43883
#
# Disc length: 798 seconds
#
# Revision: 0
# Processed by: cddbd v1.5.2PL0 Copyright (c) Steve Scherf et al.
# Submitted via: audiograbber 1.83.01
#
DISCID=28031c04
DTITLE=Vicki Starr - Love Comes So Easy With You
DYEAR=2006
DGENRE=Country
TTITLE0=I´m A Lady
TTITLE1=For Old Loves Sake
TTITLE2=Never Mind
TTITLE3=Love Comes So Easy With You
EXTD=
EXTT0=
EXTT1=
EXTT2=
EXTT3=
PLAYORDER=
